<?xml version="1.0" encoding="utf-8"?>
<!-- Generator: Adobe Illustrator 19.2.0, SVG Export Plug-In . SVG Version: 6.00 Build 0)  -->
<svg version="1.1" id="messenger" xmlns="http://www.w3.org/2000/svg" xmlns:xlink="http://www.w3.org/1999/xlink" x="0px" y="0px"
	 viewBox="0 0 168 61" style="enable-background:new 0 0 168 61;" xml:space="preserve">
<style type="text/css">
	.st0{fill:#0087FF;}
	.st1{enable-background:new    ;}
	.st2{fill:#FFFFFF;}
</style>
<path class="st0" d="M30.5,0h107C154.3,0,168,13.7,168,30.5l0,0c0,16.8-13.7,30.5-30.5,30.5h-107C13.7,61,0,47.3,0,30.5l0,0
	C0,13.7,13.7,0,30.5,0z"/>
<g class="st1">
	<path class="st2" d="M59.1,28.5c0,0.1-0.1,0.3-0.2,0.3C58.9,29,58.8,29,58.6,29c-0.2,0-0.4-0.1-0.5-0.3l-1.9-3
		c-0.2-0.4-0.5-0.6-0.8-0.8c-0.3-0.1-0.6-0.2-1.1-0.2h-1.8v3.7c0,0.2-0.1,0.3-0.2,0.4C52.4,29,52.3,29,52.1,29
		c-0.2,0-0.3-0.1-0.4-0.2c-0.1-0.1-0.2-0.2-0.2-0.4v-8.8c0-0.2,0.1-0.3,0.2-0.4s0.2-0.2,0.4-0.2h3.5c1.1,0,1.9,0.2,2.5,0.7
		c0.6,0.5,0.8,1.2,0.8,2.1c0,0.8-0.2,1.4-0.7,1.9s-1.1,0.8-1.9,0.9c0.2,0.1,0.4,0.2,0.6,0.4c0.2,0.2,0.4,0.4,0.6,0.7l1.6,2.5
		C59.1,28.3,59.1,28.4,59.1,28.5z M55.5,23.8c0.8,0,1.3-0.2,1.7-0.5s0.6-0.8,0.6-1.4c0-0.6-0.2-1.1-0.6-1.4
		c-0.4-0.3-0.9-0.5-1.7-0.5h-2.8v3.8H55.5z"/>
	<path class="st2" d="M66.5,27.5c0.1,0.1,0.1,0.2,0.1,0.3c0,0.2-0.2,0.4-0.5,0.6c-0.3,0.2-0.7,0.3-1.1,0.4C64.7,29,64.3,29,64,29
		c-1.1,0-1.9-0.3-2.5-0.9s-0.9-1.5-0.9-2.6c0-0.7,0.1-1.3,0.4-1.9c0.3-0.5,0.7-1,1.1-1.3c0.5-0.3,1-0.4,1.7-0.4
		c0.9,0,1.6,0.3,2.1,0.9c0.5,0.6,0.8,1.4,0.8,2.4c0,0.2,0,0.3-0.1,0.4s-0.2,0.1-0.4,0.1h-4.5c0.1,1.6,0.8,2.4,2.3,2.4
		c0.4,0,0.7,0,0.9-0.1c0.3-0.1,0.5-0.2,0.8-0.4c0.2-0.1,0.4-0.2,0.5-0.2C66.3,27.4,66.4,27.4,66.5,27.5z M62.3,23.4
		c-0.4,0.4-0.6,0.9-0.6,1.6h4c0-0.7-0.2-1.2-0.5-1.6c-0.3-0.4-0.8-0.6-1.4-0.6C63.2,22.8,62.7,23,62.3,23.4z"/>
	<path class="st2" d="M69.5,28.6c-0.5-0.3-0.9-0.7-1.1-1.2c-0.3-0.5-0.4-1.1-0.4-1.8s0.1-1.3,0.4-1.9c0.3-0.5,0.7-1,1.2-1.3
		s1.1-0.4,1.7-0.4c0.4,0,0.7,0,1.1,0.1s0.7,0.2,0.9,0.4c0.2,0.1,0.3,0.2,0.4,0.3s0.1,0.2,0.1,0.4s0,0.2-0.1,0.3s-0.2,0.1-0.3,0.1
		c-0.1,0-0.1,0-0.2-0.1s-0.1-0.1-0.2-0.1c-0.1,0-0.1-0.1-0.1-0.1c-0.2-0.2-0.5-0.3-0.7-0.4c-0.2-0.1-0.5-0.1-0.8-0.1
		c-0.7,0-1.2,0.2-1.6,0.7c-0.4,0.5-0.6,1.1-0.6,1.9s0.2,1.5,0.6,1.9c0.4,0.4,0.9,0.7,1.6,0.7c0.3,0,0.6,0,0.8-0.1
		c0.2-0.1,0.5-0.2,0.7-0.4c0.1-0.1,0.2-0.1,0.3-0.2c0.1,0,0.2-0.1,0.2-0.1c0.1,0,0.2,0,0.3,0.1c0.1,0.1,0.1,0.2,0.1,0.3
		c0,0.1,0,0.2-0.1,0.3c-0.1,0.1-0.2,0.2-0.4,0.3c-0.3,0.2-0.6,0.3-0.9,0.4C71.9,29,71.5,29,71.1,29C70.5,29,69.9,28.9,69.5,28.6z"/>
	<path class="st2" d="M80.6,27.5c0.1,0.1,0.1,0.2,0.1,0.3c0,0.2-0.2,0.4-0.5,0.6c-0.3,0.2-0.7,0.3-1.1,0.4C78.8,29,78.4,29,78,29
		c-1.1,0-1.9-0.3-2.5-0.9s-0.9-1.5-0.9-2.6c0-0.7,0.1-1.3,0.4-1.9c0.3-0.5,0.7-1,1.1-1.3c0.5-0.3,1-0.4,1.7-0.4
		c0.9,0,1.6,0.3,2.1,0.9c0.5,0.6,0.8,1.4,0.8,2.4c0,0.2,0,0.3-0.1,0.4s-0.2,0.1-0.4,0.1h-4.5c0.1,1.6,0.8,2.4,2.3,2.4
		c0.4,0,0.7,0,0.9-0.1c0.3-0.1,0.5-0.2,0.8-0.4c0.2-0.1,0.4-0.2,0.5-0.2C80.4,27.4,80.5,27.4,80.6,27.5z M76.4,23.4
		c-0.4,0.4-0.6,0.9-0.6,1.6h4c0-0.7-0.2-1.2-0.5-1.6c-0.3-0.4-0.8-0.6-1.4-0.6C77.3,22.8,76.8,23,76.4,23.4z"/>
	<path class="st2" d="M87.4,22.4c0.5,0.3,0.8,0.7,1.1,1.2c0.3,0.5,0.4,1.1,0.4,1.8c0,0.7-0.1,1.3-0.4,1.9c-0.3,0.5-0.6,1-1.1,1.3
		c-0.5,0.3-1,0.4-1.6,0.4c-0.5,0-1-0.1-1.4-0.3s-0.7-0.6-0.9-1v0.8c0,0.2,0,0.3-0.1,0.4C83.3,29,83.2,29,83,29s-0.3-0.1-0.4-0.2
		c-0.1-0.1-0.2-0.2-0.2-0.4v-8.9c0-0.2,0.1-0.3,0.2-0.4C82.7,19,82.8,19,83,19s0.3,0,0.4,0.1c0.1,0.1,0.1,0.2,0.1,0.4v3.8
		c0.2-0.4,0.5-0.8,0.9-1s0.9-0.4,1.4-0.4C86.4,21.9,87,22.1,87.4,22.4z M87.2,27.4c0.4-0.5,0.5-1.1,0.5-1.9c0-0.8-0.2-1.4-0.5-1.9
		c-0.4-0.4-0.9-0.7-1.5-0.7c-0.7,0-1.2,0.2-1.5,0.7c-0.4,0.4-0.5,1.1-0.5,1.9c0,0.8,0.2,1.5,0.5,1.9c0.4,0.5,0.9,0.7,1.5,0.7
		C86.3,28.1,86.8,27.9,87.2,27.4z"/>
	<path class="st2" d="M95.9,24.6v3.8c0,0.2,0,0.3-0.1,0.4C95.7,29,95.5,29,95.4,29S95.1,29,95,28.9c-0.1-0.1-0.2-0.2-0.2-0.4v-0.7
		c-0.2,0.4-0.4,0.7-0.8,0.9c-0.4,0.2-0.8,0.3-1.3,0.3c-0.4,0-0.8-0.1-1.2-0.3c-0.4-0.2-0.7-0.4-0.9-0.7s-0.3-0.7-0.3-1
		c0-0.5,0.1-0.9,0.4-1.2c0.3-0.3,0.7-0.5,1.3-0.6c0.6-0.1,1.4-0.2,2.5-0.2h0.3v-0.5c0-0.6-0.1-1-0.3-1.2c-0.2-0.3-0.6-0.4-1.1-0.4
		c-0.6,0-1.3,0.2-1.9,0.5c-0.3,0.2-0.4,0.2-0.5,0.2c-0.1,0-0.2,0-0.3-0.1c-0.1-0.1-0.1-0.2-0.1-0.3c0-0.1,0-0.2,0.1-0.3
		s0.2-0.2,0.4-0.3c0.3-0.2,0.7-0.3,1.1-0.4s0.8-0.2,1.2-0.2C95.1,21.9,95.9,22.8,95.9,24.6z M94.3,27.6c0.4-0.4,0.5-0.9,0.5-1.5
		v-0.4h-0.3c-0.8,0-1.4,0-1.9,0.1c-0.4,0.1-0.7,0.2-0.9,0.3c-0.2,0.2-0.3,0.4-0.3,0.7c0,0.4,0.1,0.7,0.4,0.9c0.3,0.2,0.6,0.4,1,0.4
		C93.4,28.1,93.9,27.9,94.3,27.6z"/>
	<path class="st2" d="M107.5,24.7v3.8c0,0.2,0,0.3-0.1,0.4c-0.1,0.1-0.2,0.1-0.4,0.1s-0.3,0-0.4-0.1c-0.1-0.1-0.2-0.2-0.2-0.4v-3.7
		c0-0.6-0.1-1.1-0.4-1.4c-0.2-0.3-0.6-0.4-1.2-0.4c-0.6,0-1.1,0.2-1.5,0.6s-0.6,0.9-0.6,1.6v3.4c0,0.2,0,0.3-0.1,0.4
		c-0.1,0.1-0.2,0.1-0.4,0.1c-0.2,0-0.3,0-0.4-0.1c-0.1-0.1-0.2-0.2-0.2-0.4v-5.9c0-0.2,0.1-0.3,0.2-0.4s0.2-0.2,0.4-0.2
		c0.2,0,0.3,0.1,0.4,0.2c0.1,0.1,0.1,0.2,0.1,0.4v0.7c0.2-0.4,0.5-0.7,0.9-1c0.4-0.2,0.9-0.3,1.4-0.3
		C106.7,21.9,107.5,22.9,107.5,24.7z"/>
	<path class="st2" d="M110.7,28.6c-0.5-0.3-0.9-0.7-1.1-1.2c-0.3-0.5-0.4-1.2-0.4-1.9c0-0.7,0.1-1.3,0.4-1.9
		c0.3-0.5,0.6-0.9,1.1-1.2c0.5-0.3,1.1-0.4,1.7-0.4c0.6,0,1.2,0.1,1.7,0.4c0.5,0.3,0.9,0.7,1.1,1.2c0.3,0.5,0.4,1.2,0.4,1.9
		c0,0.7-0.1,1.3-0.4,1.9c-0.3,0.5-0.6,1-1.1,1.2c-0.5,0.3-1.1,0.4-1.7,0.4C111.7,29,111.2,28.9,110.7,28.6z M113.9,27.4
		c0.4-0.4,0.5-1.1,0.5-1.9c0-0.8-0.2-1.5-0.5-1.9c-0.4-0.5-0.9-0.7-1.5-0.7c-0.7,0-1.2,0.2-1.5,0.7c-0.4,0.5-0.5,1.1-0.5,1.9
		c0,0.8,0.2,1.5,0.5,1.9c0.4,0.4,0.9,0.7,1.5,0.7S113.6,27.9,113.9,27.4z"/>
</g>
<g class="st1">
	<path class="st2" d="M60.8,36c0.2,0.2,0.2,0.4,0.2,0.7V45c0,0.3-0.1,0.5-0.2,0.6c-0.1,0.1-0.3,0.2-0.6,0.2s-0.4-0.1-0.6-0.2
		c-0.1-0.1-0.2-0.4-0.2-0.6v-5.8L57,43.7c-0.1,0.2-0.2,0.4-0.4,0.5c-0.1,0.1-0.3,0.1-0.5,0.1s-0.3,0-0.5-0.1
		c-0.1-0.1-0.3-0.2-0.4-0.5L53,39.3V45c0,0.3-0.1,0.5-0.2,0.6c-0.1,0.2-0.3,0.2-0.6,0.2s-0.4-0.1-0.6-0.2c-0.1-0.1-0.2-0.4-0.2-0.6
		v-8.3c0-0.3,0.1-0.5,0.2-0.7c0.2-0.2,0.4-0.2,0.6-0.2c0.4,0,0.6,0.2,0.9,0.6l3.1,5.9l3.1-5.9c0.2-0.4,0.5-0.6,0.8-0.6
		C60.4,35.8,60.6,35.9,60.8,36z"/>
	<path class="st2" d="M68.8,44c0.1,0.1,0.1,0.3,0.1,0.5c0,0.3-0.2,0.5-0.5,0.7c-0.3,0.2-0.7,0.3-1.1,0.4c-0.4,0.1-0.8,0.2-1.1,0.2
		c-1.1,0-2-0.3-2.6-1s-1-1.5-1-2.6c0-0.7,0.1-1.3,0.4-1.9c0.3-0.5,0.7-1,1.2-1.3c0.5-0.3,1.1-0.4,1.7-0.4c0.6,0,1.2,0.1,1.6,0.4
		c0.5,0.3,0.8,0.7,1.1,1.1S69,41.4,69,42c0,0.4-0.2,0.6-0.5,0.6h-4.1c0.1,0.6,0.2,1.1,0.5,1.4c0.3,0.3,0.8,0.5,1.3,0.5
		c0.3,0,0.6,0,0.8-0.1c0.2-0.1,0.5-0.2,0.8-0.3c0.3-0.1,0.5-0.2,0.6-0.2C68.6,43.9,68.7,43.9,68.8,44z M64.8,40.4
		c-0.3,0.3-0.5,0.7-0.5,1.3h3.2c0-0.6-0.2-1-0.4-1.3S66.4,40,66,40C65.5,40,65.1,40.1,64.8,40.4z"/>
	<path class="st2" d="M70.4,45.2c-0.3-0.2-0.4-0.4-0.4-0.8c0-0.2,0.1-0.3,0.2-0.5c0.1-0.1,0.2-0.2,0.4-0.2c0.2,0,0.4,0.1,0.7,0.2
		c0.3,0.1,0.6,0.2,0.8,0.3c0.2,0.1,0.6,0.1,0.9,0.1c0.4,0,0.7-0.1,0.9-0.2c0.2-0.1,0.3-0.3,0.3-0.5c0-0.2,0-0.3-0.1-0.4
		s-0.2-0.2-0.5-0.3s-0.6-0.2-1-0.3c-0.8-0.2-1.4-0.4-1.8-0.7s-0.5-0.7-0.5-1.3c0-0.4,0.1-0.8,0.4-1.1s0.6-0.6,1-0.8
		c0.4-0.2,0.9-0.3,1.4-0.3c0.4,0,0.8,0,1.1,0.1c0.4,0.1,0.7,0.2,1,0.4c0.3,0.2,0.4,0.4,0.4,0.7c0,0.2-0.1,0.3-0.2,0.5
		c-0.1,0.1-0.2,0.2-0.4,0.2c-0.1,0-0.2,0-0.3-0.1c-0.1,0-0.2-0.1-0.4-0.2c-0.3-0.1-0.5-0.2-0.7-0.3c-0.2-0.1-0.4-0.1-0.7-0.1
		c-0.3,0-0.6,0.1-0.8,0.2s-0.3,0.3-0.3,0.6c0,0.2,0.1,0.4,0.3,0.5c0.2,0.1,0.6,0.2,1.2,0.4c0.6,0.1,1.1,0.3,1.5,0.4
		c0.4,0.2,0.6,0.4,0.8,0.6c0.2,0.3,0.2,0.6,0.2,1c0,0.6-0.3,1.1-0.8,1.5c-0.5,0.4-1.2,0.6-2.1,0.6C71.9,45.8,71.1,45.6,70.4,45.2z"
		/>
	<path class="st2" d="M77.2,45.2c-0.3-0.2-0.4-0.4-0.4-0.8c0-0.2,0.1-0.3,0.2-0.5c0.1-0.1,0.2-0.2,0.4-0.2c0.2,0,0.4,0.1,0.7,0.2
		c0.3,0.1,0.6,0.2,0.8,0.3c0.2,0.1,0.6,0.1,0.9,0.1c0.4,0,0.7-0.1,0.9-0.2c0.2-0.1,0.3-0.3,0.3-0.5c0-0.2,0-0.3-0.1-0.4
		s-0.2-0.2-0.5-0.3s-0.6-0.2-1-0.3c-0.8-0.2-1.4-0.4-1.8-0.7S77,41.4,77,40.9c0-0.4,0.1-0.8,0.4-1.1s0.6-0.6,1-0.8
		c0.4-0.2,0.9-0.3,1.4-0.3c0.4,0,0.8,0,1.1,0.1c0.4,0.1,0.7,0.2,1,0.4c0.3,0.2,0.4,0.4,0.4,0.7c0,0.2-0.1,0.3-0.2,0.5
		c-0.1,0.1-0.2,0.2-0.4,0.2c-0.1,0-0.2,0-0.3-0.1c-0.1,0-0.2-0.1-0.4-0.2c-0.3-0.1-0.5-0.2-0.7-0.3C80.3,40.1,80,40,79.7,40
		c-0.3,0-0.6,0.1-0.8,0.2s-0.3,0.3-0.3,0.6c0,0.2,0.1,0.4,0.3,0.5c0.2,0.1,0.6,0.2,1.2,0.4c0.6,0.1,1.1,0.3,1.5,0.4
		c0.4,0.2,0.6,0.4,0.8,0.6c0.2,0.3,0.2,0.6,0.2,1c0,0.6-0.3,1.1-0.8,1.5c-0.5,0.4-1.2,0.6-2.1,0.6C78.7,45.8,77.8,45.6,77.2,45.2z"
		/>
	<path class="st2" d="M89.8,44c0.1,0.1,0.1,0.3,0.1,0.5c0,0.3-0.2,0.5-0.5,0.7c-0.3,0.2-0.7,0.3-1.1,0.4c-0.4,0.1-0.8,0.2-1.1,0.2
		c-1.1,0-2-0.3-2.6-1c-0.6-0.6-1-1.5-1-2.6c0-0.7,0.1-1.3,0.4-1.9c0.3-0.5,0.7-1,1.2-1.3c0.5-0.3,1.1-0.4,1.7-0.4
		c0.6,0,1.2,0.1,1.6,0.4c0.5,0.3,0.8,0.7,1.1,1.1S90,41.4,90,42c0,0.4-0.2,0.6-0.5,0.6h-4.1c0.1,0.6,0.2,1.1,0.5,1.4
		c0.3,0.3,0.8,0.5,1.3,0.5c0.3,0,0.6,0,0.8-0.1c0.2-0.1,0.5-0.2,0.8-0.3c0.3-0.1,0.5-0.2,0.6-0.2C89.6,43.9,89.7,43.9,89.8,44z
		 M85.8,40.4c-0.3,0.3-0.5,0.7-0.5,1.3h3.2c0-0.6-0.2-1-0.4-1.3C87.8,40.1,87.5,40,87,40C86.5,40,86.1,40.1,85.8,40.4z"/>
	<path class="st2" d="M97.2,39.4c0.4,0.5,0.6,1.2,0.6,2.1V45c0,0.3-0.1,0.5-0.2,0.6c-0.2,0.1-0.4,0.2-0.6,0.2
		c-0.3,0-0.5-0.1-0.6-0.2c-0.2-0.1-0.2-0.4-0.2-0.6v-3.3c0-0.5-0.1-0.9-0.3-1.2c-0.2-0.2-0.5-0.4-0.9-0.4c-0.5,0-0.9,0.2-1.2,0.5
		c-0.3,0.3-0.5,0.7-0.5,1.3V45c0,0.3-0.1,0.5-0.2,0.6c-0.2,0.1-0.4,0.2-0.6,0.2c-0.3,0-0.5-0.1-0.6-0.2c-0.2-0.1-0.2-0.4-0.2-0.6
		v-5.4c0-0.2,0.1-0.4,0.2-0.6c0.2-0.1,0.4-0.2,0.6-0.2c0.2,0,0.4,0.1,0.6,0.2c0.2,0.1,0.2,0.3,0.2,0.6v0.4c0.2-0.4,0.5-0.7,0.9-0.9
		c0.4-0.2,0.8-0.3,1.3-0.3C96.2,38.7,96.8,39,97.2,39.4z"/>
	<path class="st2" d="M106,39c0.2,0.1,0.2,0.3,0.2,0.6v5.5c0,1.1-0.3,1.9-0.9,2.4c-0.6,0.6-1.5,0.8-2.6,0.8c-1,0-1.9-0.2-2.5-0.6
		c-0.3-0.2-0.5-0.5-0.5-0.7c0-0.2,0-0.4,0.1-0.5s0.2-0.2,0.4-0.2c0.1,0,0.2,0,0.3,0.1c0.1,0,0.2,0.1,0.4,0.1
		c0.3,0.1,0.6,0.2,0.9,0.3c0.3,0.1,0.6,0.1,0.9,0.1c1.2,0,1.8-0.6,1.8-1.8v-0.9c-0.2,0.4-0.5,0.7-0.9,0.9c-0.4,0.2-0.8,0.3-1.3,0.3
		c-0.6,0-1.1-0.1-1.6-0.4c-0.5-0.3-0.8-0.7-1.1-1.2c-0.3-0.5-0.4-1.1-0.4-1.8s0.1-1.3,0.4-1.8c0.3-0.5,0.6-0.9,1.1-1.2
		s1-0.4,1.6-0.4c0.5,0,1,0.1,1.3,0.3c0.4,0.2,0.7,0.5,0.9,0.9v-0.4c0-0.2,0.1-0.4,0.2-0.6c0.2-0.1,0.4-0.2,0.6-0.2
		C105.7,38.8,105.9,38.8,106,39z M104.1,43.6c0.3-0.4,0.5-0.9,0.5-1.5c0-0.6-0.2-1.1-0.5-1.5c-0.3-0.4-0.7-0.5-1.3-0.5
		c-0.6,0-1,0.2-1.3,0.5c-0.3,0.4-0.5,0.9-0.5,1.5c0,0.6,0.2,1.1,0.5,1.5c0.3,0.4,0.8,0.5,1.3,0.5C103.3,44.2,103.8,44,104.1,43.6z"
		/>
	<path class="st2" d="M113.9,44c0.1,0.1,0.1,0.3,0.1,0.5c0,0.3-0.2,0.5-0.5,0.7c-0.3,0.2-0.7,0.3-1.1,0.4c-0.4,0.1-0.8,0.2-1.1,0.2
		c-1.1,0-2-0.3-2.6-1c-0.6-0.6-1-1.5-1-2.6c0-0.7,0.1-1.3,0.4-1.9c0.3-0.5,0.7-1,1.2-1.3c0.5-0.3,1.1-0.4,1.7-0.4
		c0.6,0,1.2,0.1,1.6,0.4c0.5,0.3,0.8,0.7,1.1,1.1s0.4,1.1,0.4,1.8c0,0.4-0.2,0.6-0.5,0.6h-4.1c0.1,0.6,0.2,1.1,0.5,1.4
		c0.3,0.3,0.8,0.5,1.3,0.5c0.3,0,0.6,0,0.8-0.1c0.2-0.1,0.5-0.2,0.8-0.3c0.3-0.1,0.5-0.2,0.6-0.2C113.7,43.9,113.8,43.9,113.9,44z
		 M109.9,40.4c-0.3,0.3-0.5,0.7-0.5,1.3h3.2c0-0.6-0.2-1-0.4-1.3c-0.3-0.3-0.6-0.4-1.1-0.4C110.6,40,110.2,40.1,109.9,40.4z"/>
	<path class="st2" d="M119.9,38.9c0.1,0.1,0.2,0.3,0.2,0.5c0,0.3-0.1,0.4-0.2,0.6c-0.1,0.1-0.3,0.2-0.7,0.2l-0.4,0
		c-0.6,0.1-1,0.2-1.2,0.6s-0.4,0.7-0.4,1.2V45c0,0.3-0.1,0.5-0.3,0.6s-0.4,0.2-0.6,0.2s-0.5-0.1-0.6-0.2c-0.2-0.1-0.2-0.4-0.2-0.6
		v-5.4c0-0.3,0.1-0.5,0.2-0.6c0.2-0.1,0.4-0.2,0.6-0.2s0.4,0.1,0.6,0.2c0.1,0.1,0.2,0.3,0.2,0.6v0.6c0.2-0.4,0.4-0.7,0.8-1
		c0.3-0.2,0.7-0.4,1.2-0.4l0.2,0C119.6,38.7,119.8,38.8,119.9,38.9z"/>
</g>
<path class="st2" d="M139,18.8c-7.7,0-14,5.8-14,12.9c0,4.1,2,7.7,5.2,10.1v4.9l4.8-2.6c1.3,0.4,2.6,0.5,4,0.5c7.7,0,14-5.8,14-12.9
	S146.7,18.8,139,18.8z M140.4,36.2l-3.6-3.8l-6.9,3.8l7.6-8.1l3.6,3.8l6.9-3.8L140.4,36.2z"/>
</svg>
