<?xml version="1.0" encoding="utf-8"?>
<!-- Generator: Adobe Illustrator 19.2.0, SVG Export Plug-In . SVG Version: 6.00 Build 0)  -->
<svg version="1.1" id="whatsapp" xmlns="http://www.w3.org/2000/svg" xmlns:xlink="http://www.w3.org/1999/xlink" x="0px" y="0px"
	 viewBox="0 0 168 61" style="enable-background:new 0 0 168 61;" xml:space="preserve">
<style type="text/css">
	.st0{fill:#2CB742;}
	.st1{fill:#FFFFFF;}
	.st2{enable-background:new    ;}
</style>
<path class="st0" d="M30.5,0h107C154.3,0,168,13.7,168,30.5l0,0c0,16.8-13.7,30.5-30.5,30.5h-107C13.7,61,0,47.3,0,30.5l0,0
	C0,13.7,13.7,0,30.5,0z"/>
<path class="st1" d="M152,30.2c-0.1,6.8-5.6,12.2-12.4,12.2c-2,0-4-0.5-5.8-1.5L127,43l2.2-6.5c-1.2-1.9-1.8-4.1-1.8-6.3
	c0-6.8,5.5-12.3,12.3-12.3C146.5,17.9,152,23.4,152,30.2L152,30.2L152,30.2z M139.7,19.9c-5.7,0-10.3,4.6-10.3,10.2
	c0,2.2,0.7,4.3,2,6l-1.3,3.8l4-1.3c4.7,3.2,11.1,1.9,14.2-2.8c3.2-4.7,1.9-11.1-2.8-14.2C143.8,20.5,141.8,19.9,139.7,19.9
	L139.7,19.9L139.7,19.9z M145.9,33c-0.2-0.2-0.4-0.3-0.6-0.3c-0.3-0.1-1.8-0.9-2.1-1c-0.2-0.1-0.5-0.1-0.7,0.1l0,0
	c-0.2,0.3-0.8,1-1,1.2c-0.2,0.2-0.4,0.2-0.6,0.1l0,0c-0.9-0.3-1.7-0.9-2.4-1.5c-0.7-0.6-1.2-1.3-1.7-2.1c-0.1-0.2-0.1-0.5,0.1-0.6
	l0,0c0.1-0.1,0.3-0.3,0.5-0.5c0.1-0.2,0.2-0.3,0.3-0.5s0.1-0.4,0-0.5s-0.7-1.6-0.9-2.2s-0.5-0.5-0.7-0.5s-0.4,0-0.6,0
	c-0.3,0-0.6,0.1-0.8,0.4c-0.7,0.6-1.1,1.5-1.1,2.5c0.1,1.1,0.5,2.2,1.2,3.1c1.3,2,3,3.5,5.1,4.5c3.1,1.2,3.1,0.8,3.6,0.7
	c0.8-0.2,1.6-0.7,2-1.4C145.9,34,146,33.5,145.9,33L145.9,33L145.9,33z"/>
<g class="st2">
	<path class="st1" d="M59.1,28.5c0,0.1-0.1,0.3-0.2,0.3C58.9,29,58.8,29,58.6,29c-0.2,0-0.4-0.1-0.5-0.3l-1.9-3
		c-0.2-0.4-0.5-0.6-0.8-0.8c-0.3-0.1-0.6-0.2-1.1-0.2h-1.8v3.7c0,0.2-0.1,0.3-0.2,0.4C52.4,29,52.3,29,52.1,29
		c-0.2,0-0.3-0.1-0.4-0.2c-0.1-0.1-0.2-0.2-0.2-0.4v-8.8c0-0.2,0.1-0.3,0.2-0.4s0.2-0.2,0.4-0.2h3.5c1.1,0,1.9,0.2,2.5,0.7
		c0.6,0.5,0.8,1.2,0.8,2.1c0,0.8-0.2,1.4-0.7,1.9s-1.1,0.8-1.9,0.9c0.2,0.1,0.4,0.2,0.6,0.4c0.2,0.2,0.4,0.4,0.6,0.7l1.6,2.5
		C59.1,28.3,59.1,28.4,59.1,28.5z M55.5,23.8c0.8,0,1.3-0.2,1.7-0.5s0.6-0.8,0.6-1.4c0-0.6-0.2-1.1-0.6-1.4
		c-0.4-0.3-0.9-0.5-1.7-0.5h-2.8v3.8H55.5z"/>
	<path class="st1" d="M66.5,27.5c0.1,0.1,0.1,0.2,0.1,0.3c0,0.2-0.2,0.4-0.5,0.6c-0.3,0.2-0.7,0.3-1.1,0.4C64.7,29,64.3,29,64,29
		c-1.1,0-1.9-0.3-2.5-0.9s-0.9-1.5-0.9-2.6c0-0.7,0.1-1.3,0.4-1.9c0.3-0.5,0.7-1,1.1-1.3c0.5-0.3,1-0.4,1.7-0.4
		c0.9,0,1.6,0.3,2.1,0.9c0.5,0.6,0.8,1.4,0.8,2.4c0,0.2,0,0.3-0.1,0.4s-0.2,0.1-0.4,0.1h-4.5c0.1,1.6,0.8,2.4,2.3,2.4
		c0.4,0,0.7,0,0.9-0.1c0.3-0.1,0.5-0.2,0.8-0.4c0.2-0.1,0.4-0.2,0.5-0.2C66.3,27.4,66.4,27.4,66.5,27.5z M62.3,23.4
		c-0.4,0.4-0.6,0.9-0.6,1.6h4c0-0.7-0.2-1.2-0.5-1.6c-0.3-0.4-0.8-0.6-1.4-0.6C63.2,22.8,62.7,23,62.3,23.4z"/>
	<path class="st1" d="M69.5,28.6c-0.5-0.3-0.9-0.7-1.1-1.2c-0.3-0.5-0.4-1.1-0.4-1.8s0.1-1.3,0.4-1.9c0.3-0.5,0.7-1,1.2-1.3
		s1.1-0.4,1.7-0.4c0.4,0,0.7,0,1.1,0.1s0.7,0.2,0.9,0.4c0.2,0.1,0.3,0.2,0.4,0.3s0.1,0.2,0.1,0.4s0,0.2-0.1,0.3s-0.2,0.1-0.3,0.1
		c-0.1,0-0.1,0-0.2-0.1s-0.1-0.1-0.2-0.1c-0.1,0-0.1-0.1-0.1-0.1c-0.2-0.2-0.5-0.3-0.7-0.4c-0.2-0.1-0.5-0.1-0.8-0.1
		c-0.7,0-1.2,0.2-1.6,0.7c-0.4,0.5-0.6,1.1-0.6,1.9s0.2,1.5,0.6,1.9c0.4,0.4,0.9,0.7,1.6,0.7c0.3,0,0.6,0,0.8-0.1
		c0.2-0.1,0.5-0.2,0.7-0.4c0.1-0.1,0.2-0.1,0.3-0.2c0.1,0,0.2-0.1,0.2-0.1c0.1,0,0.2,0,0.3,0.1c0.1,0.1,0.1,0.2,0.1,0.3
		c0,0.1,0,0.2-0.1,0.3c-0.1,0.1-0.2,0.2-0.4,0.3c-0.3,0.2-0.6,0.3-0.9,0.4C71.9,29,71.5,29,71.1,29C70.5,29,69.9,28.9,69.5,28.6z"/>
	<path class="st1" d="M80.6,27.5c0.1,0.1,0.1,0.2,0.1,0.3c0,0.2-0.2,0.4-0.5,0.6c-0.3,0.2-0.7,0.3-1.1,0.4C78.8,29,78.4,29,78,29
		c-1.1,0-1.9-0.3-2.5-0.9s-0.9-1.5-0.9-2.6c0-0.7,0.1-1.3,0.4-1.9c0.3-0.5,0.7-1,1.1-1.3c0.5-0.3,1-0.4,1.7-0.4
		c0.9,0,1.6,0.3,2.1,0.9c0.5,0.6,0.8,1.4,0.8,2.4c0,0.2,0,0.3-0.1,0.4s-0.2,0.1-0.4,0.1h-4.5c0.1,1.6,0.8,2.4,2.3,2.4
		c0.4,0,0.7,0,0.9-0.1c0.3-0.1,0.5-0.2,0.8-0.4c0.2-0.1,0.4-0.2,0.5-0.2C80.4,27.4,80.5,27.4,80.6,27.5z M76.4,23.4
		c-0.4,0.4-0.6,0.9-0.6,1.6h4c0-0.7-0.2-1.2-0.5-1.6c-0.3-0.4-0.8-0.6-1.4-0.6C77.3,22.8,76.8,23,76.4,23.4z"/>
	<path class="st1" d="M87.4,22.4c0.5,0.3,0.8,0.7,1.1,1.2c0.3,0.5,0.4,1.1,0.4,1.8c0,0.7-0.1,1.3-0.4,1.9c-0.3,0.5-0.6,1-1.1,1.3
		c-0.5,0.3-1,0.4-1.6,0.4c-0.5,0-1-0.1-1.4-0.3s-0.7-0.6-0.9-1v0.8c0,0.2,0,0.3-0.1,0.4C83.3,29,83.2,29,83,29s-0.3-0.1-0.4-0.2
		c-0.1-0.1-0.2-0.2-0.2-0.4v-8.9c0-0.2,0.1-0.3,0.2-0.4C82.7,19,82.8,19,83,19s0.3,0,0.4,0.1c0.1,0.1,0.1,0.2,0.1,0.4v3.8
		c0.2-0.4,0.5-0.8,0.9-1s0.9-0.4,1.4-0.4C86.4,22,87,22.1,87.4,22.4z M87.2,27.4c0.4-0.5,0.5-1.1,0.5-1.9c0-0.8-0.2-1.4-0.5-1.9
		c-0.4-0.4-0.9-0.7-1.5-0.7c-0.7,0-1.2,0.2-1.5,0.7c-0.4,0.4-0.5,1.1-0.5,1.9c0,0.8,0.2,1.5,0.5,1.9c0.4,0.5,0.9,0.7,1.5,0.7
		C86.3,28.1,86.8,27.9,87.2,27.4z"/>
	<path class="st1" d="M95.9,24.6v3.8c0,0.2,0,0.3-0.1,0.4C95.7,29,95.5,29,95.4,29S95.1,29,95,28.9c-0.1-0.1-0.2-0.2-0.2-0.4v-0.7
		c-0.2,0.4-0.4,0.7-0.8,0.9c-0.4,0.2-0.8,0.3-1.3,0.3c-0.4,0-0.8-0.1-1.2-0.3c-0.4-0.2-0.7-0.4-0.9-0.7s-0.3-0.7-0.3-1
		c0-0.5,0.1-0.9,0.4-1.2c0.3-0.3,0.7-0.5,1.3-0.6c0.6-0.1,1.4-0.2,2.5-0.2h0.3v-0.5c0-0.6-0.1-1-0.3-1.2c-0.2-0.3-0.6-0.4-1.1-0.4
		c-0.6,0-1.3,0.2-1.9,0.5c-0.3,0.2-0.4,0.2-0.5,0.2c-0.1,0-0.2,0-0.3-0.1c-0.1-0.1-0.1-0.2-0.1-0.3c0-0.1,0-0.2,0.1-0.3
		s0.2-0.2,0.4-0.3c0.3-0.2,0.7-0.3,1.1-0.4s0.8-0.2,1.2-0.2C95.1,22,95.9,22.8,95.9,24.6z M94.3,27.6c0.4-0.4,0.5-0.9,0.5-1.5v-0.4
		h-0.3c-0.8,0-1.4,0-1.9,0.1c-0.4,0.1-0.7,0.2-0.9,0.3c-0.2,0.2-0.3,0.4-0.3,0.7c0,0.4,0.1,0.7,0.4,0.9c0.3,0.2,0.6,0.4,1,0.4
		C93.4,28.1,93.9,28,94.3,27.6z"/>
	<path class="st1" d="M107.5,24.7v3.8c0,0.2,0,0.3-0.1,0.4c-0.1,0.1-0.2,0.1-0.4,0.1s-0.3,0-0.4-0.1c-0.1-0.1-0.2-0.2-0.2-0.4v-3.7
		c0-0.6-0.1-1.1-0.4-1.4c-0.2-0.3-0.6-0.4-1.2-0.4c-0.6,0-1.1,0.2-1.5,0.6s-0.6,0.9-0.6,1.6v3.4c0,0.2,0,0.3-0.1,0.4
		c-0.1,0.1-0.2,0.1-0.4,0.1c-0.2,0-0.3,0-0.4-0.1c-0.1-0.1-0.2-0.2-0.2-0.4v-5.9c0-0.2,0.1-0.3,0.2-0.4s0.2-0.2,0.4-0.2
		c0.2,0,0.3,0.1,0.4,0.2c0.1,0.1,0.1,0.2,0.1,0.4v0.7c0.2-0.4,0.5-0.7,0.9-1c0.4-0.2,0.9-0.3,1.4-0.3
		C106.7,22,107.5,22.9,107.5,24.7z"/>
	<path class="st1" d="M110.7,28.6c-0.5-0.3-0.9-0.7-1.1-1.2c-0.3-0.5-0.4-1.2-0.4-1.9c0-0.7,0.1-1.3,0.4-1.9
		c0.3-0.5,0.6-0.9,1.1-1.2c0.5-0.3,1.1-0.4,1.7-0.4c0.6,0,1.2,0.1,1.7,0.4c0.5,0.3,0.9,0.7,1.1,1.2c0.3,0.5,0.4,1.2,0.4,1.9
		c0,0.7-0.1,1.3-0.4,1.9c-0.3,0.5-0.6,1-1.1,1.2c-0.5,0.3-1.1,0.4-1.7,0.4C111.7,29,111.2,28.9,110.7,28.6z M113.9,27.4
		c0.4-0.4,0.5-1.1,0.5-1.9c0-0.8-0.2-1.5-0.5-1.9c-0.4-0.5-0.9-0.7-1.5-0.7c-0.7,0-1.2,0.2-1.5,0.7c-0.4,0.5-0.5,1.1-0.5,1.9
		c0,0.8,0.2,1.5,0.5,1.9c0.4,0.4,0.9,0.7,1.5,0.7S113.6,27.9,113.9,27.4z"/>
</g>
<g class="st2">
	<path class="st1" d="M64.1,35.9c0.1-0.1,0.3-0.1,0.5-0.1c0.2,0,0.4,0.1,0.6,0.2c0.2,0.1,0.2,0.3,0.2,0.6c0,0.1,0,0.2-0.1,0.4
		l-3,8.3c-0.1,0.2-0.2,0.3-0.4,0.4c-0.2,0.1-0.4,0.2-0.6,0.2s-0.4-0.1-0.6-0.2c-0.2-0.1-0.3-0.2-0.4-0.4l-2.3-6.6l-2.4,6.6
		c-0.1,0.2-0.2,0.3-0.4,0.4s-0.4,0.2-0.6,0.2c-0.2,0-0.4-0.1-0.6-0.2c-0.2-0.1-0.3-0.2-0.4-0.4l-3-8.3c0-0.1-0.1-0.3-0.1-0.4
		c0-0.2,0.1-0.4,0.3-0.6c0.2-0.1,0.4-0.2,0.6-0.2c0.2,0,0.4,0,0.5,0.1c0.1,0.1,0.3,0.2,0.3,0.4l2.4,6.8l2.5-6.8
		c0.1-0.2,0.2-0.3,0.3-0.4s0.3-0.2,0.5-0.2s0.3,0.1,0.5,0.2c0.2,0.1,0.3,0.3,0.3,0.5l2.4,6.9l2.4-6.9C63.8,36.2,63.9,36,64.1,35.9z"
		/>
	<path class="st1" d="M73.2,41.5V45c0,0.3-0.1,0.5-0.2,0.6c-0.2,0.1-0.4,0.2-0.6,0.2c-0.3,0-0.5-0.1-0.6-0.2
		c-0.2-0.1-0.2-0.4-0.2-0.6v-3.4c0-0.5-0.1-0.9-0.3-1.1s-0.5-0.3-0.9-0.3c-0.5,0-0.9,0.2-1.2,0.5c-0.3,0.3-0.5,0.7-0.5,1.3V45
		c0,0.3-0.1,0.5-0.2,0.6c-0.2,0.1-0.4,0.2-0.6,0.2c-0.3,0-0.5-0.1-0.6-0.2c-0.2-0.1-0.2-0.4-0.2-0.6v-8.4c0-0.2,0.1-0.4,0.2-0.6
		c0.2-0.1,0.4-0.2,0.6-0.2s0.5,0.1,0.6,0.2c0.2,0.1,0.2,0.3,0.2,0.6v3.3c0.2-0.4,0.5-0.6,0.9-0.8s0.8-0.3,1.3-0.3
		C72.4,38.7,73.2,39.7,73.2,41.5z"/>
	<path class="st1" d="M80,39.4c0.5,0.5,0.7,1.2,0.7,2.1V45c0,0.3-0.1,0.5-0.2,0.6c-0.1,0.1-0.4,0.2-0.6,0.2c-0.2,0-0.4-0.1-0.6-0.2
		c-0.2-0.1-0.2-0.3-0.2-0.6v-0.3c-0.2,0.4-0.4,0.6-0.7,0.9s-0.7,0.3-1.2,0.3c-0.5,0-0.9-0.1-1.2-0.3c-0.4-0.2-0.7-0.4-0.9-0.8
		c-0.2-0.3-0.3-0.7-0.3-1.1c0-0.5,0.1-0.9,0.4-1.2s0.7-0.5,1.3-0.6c0.6-0.1,1.4-0.2,2.4-0.2h0.4v-0.3c0-0.5-0.1-0.8-0.3-1
		c-0.2-0.2-0.5-0.3-1-0.3c-0.3,0-0.5,0-0.8,0.1c-0.3,0.1-0.6,0.2-1,0.3c-0.2,0.1-0.4,0.2-0.5,0.2c-0.2,0-0.3-0.1-0.4-0.2
		c-0.1-0.1-0.2-0.3-0.2-0.5c0-0.2,0-0.3,0.1-0.4c0.1-0.1,0.2-0.2,0.4-0.3c0.3-0.2,0.7-0.3,1.2-0.4c0.5-0.1,0.9-0.2,1.3-0.2
		C78.9,38.7,79.6,39,80,39.4z M78.6,44.1c0.3-0.3,0.4-0.7,0.4-1.2v-0.3h-0.3c-0.6,0-1.1,0-1.5,0.1s-0.6,0.2-0.7,0.3
		c-0.1,0.1-0.2,0.3-0.2,0.6c0,0.3,0.1,0.5,0.3,0.7s0.5,0.3,0.8,0.3C77.9,44.6,78.3,44.4,78.6,44.1z"/>
	<path class="st1" d="M86.8,45.2c0,0.2-0.1,0.4-0.3,0.5c-0.2,0.1-0.4,0.2-0.8,0.1l-0.4,0c-1.6-0.1-2.4-1-2.4-2.5v-3.1h-0.7
		c-0.3,0-0.4-0.1-0.6-0.2c-0.1-0.1-0.2-0.3-0.2-0.5c0-0.2,0.1-0.4,0.2-0.5c0.1-0.1,0.3-0.2,0.6-0.2H83v-1.3c0-0.3,0.1-0.5,0.2-0.6
		c0.2-0.1,0.4-0.2,0.6-0.2c0.3,0,0.5,0.1,0.6,0.2c0.2,0.1,0.2,0.4,0.2,0.6v1.3h1.2c0.3,0,0.4,0.1,0.6,0.2c0.1,0.1,0.2,0.3,0.2,0.5
		c0,0.2-0.1,0.4-0.2,0.5c-0.1,0.1-0.3,0.2-0.6,0.2h-1.2v3.2c0,0.7,0.3,1.1,1,1.1l0.4,0C86.5,44.5,86.8,44.8,86.8,45.2z"/>
	<path class="st1" d="M87.7,45.2c-0.3-0.2-0.4-0.4-0.4-0.8c0-0.2,0.1-0.3,0.2-0.5c0.1-0.1,0.2-0.2,0.4-0.2c0.2,0,0.4,0.1,0.7,0.2
		c0.3,0.1,0.6,0.2,0.8,0.3c0.2,0.1,0.6,0.1,0.9,0.1c0.4,0,0.7-0.1,0.9-0.2s0.3-0.3,0.3-0.5c0-0.2,0-0.3-0.1-0.4s-0.2-0.2-0.5-0.3
		s-0.6-0.2-1-0.3c-0.8-0.2-1.4-0.4-1.8-0.7s-0.5-0.7-0.5-1.3c0-0.4,0.1-0.8,0.4-1.1c0.2-0.3,0.6-0.6,1-0.8c0.4-0.2,0.9-0.3,1.4-0.3
		c0.4,0,0.8,0,1.1,0.1c0.4,0.1,0.7,0.2,1,0.4c0.3,0.2,0.4,0.4,0.4,0.7c0,0.2-0.1,0.3-0.2,0.5c-0.1,0.1-0.2,0.2-0.4,0.2
		c-0.1,0-0.2,0-0.3-0.1c-0.1,0-0.2-0.1-0.4-0.2c-0.3-0.1-0.5-0.2-0.7-0.3c-0.2-0.1-0.4-0.1-0.7-0.1c-0.3,0-0.6,0.1-0.8,0.2
		c-0.2,0.1-0.3,0.3-0.3,0.6c0,0.2,0.1,0.4,0.3,0.5c0.2,0.1,0.6,0.2,1.2,0.4c0.6,0.1,1.1,0.3,1.5,0.4c0.4,0.2,0.6,0.4,0.8,0.6
		s0.2,0.6,0.2,1c0,0.6-0.3,1.1-0.8,1.5c-0.5,0.4-1.2,0.6-2.1,0.6C89.1,45.9,88.3,45.6,87.7,45.2z"/>
	<path class="st1" d="M99.5,39.4c0.5,0.5,0.7,1.2,0.7,2.1V45c0,0.3-0.1,0.5-0.2,0.6c-0.1,0.1-0.4,0.2-0.6,0.2
		c-0.2,0-0.4-0.1-0.6-0.2c-0.2-0.1-0.2-0.3-0.2-0.6v-0.3c-0.2,0.4-0.4,0.6-0.7,0.9s-0.7,0.3-1.2,0.3c-0.5,0-0.9-0.1-1.2-0.3
		c-0.4-0.2-0.7-0.4-0.9-0.8c-0.2-0.3-0.3-0.7-0.3-1.1c0-0.5,0.1-0.9,0.4-1.2s0.7-0.5,1.3-0.6c0.6-0.1,1.4-0.2,2.4-0.2h0.4v-0.3
		c0-0.5-0.1-0.8-0.3-1s-0.5-0.3-1-0.3c-0.3,0-0.5,0-0.8,0.1c-0.3,0.1-0.6,0.2-1,0.3c-0.2,0.1-0.4,0.2-0.5,0.2
		c-0.2,0-0.3-0.1-0.4-0.2c-0.1-0.1-0.2-0.3-0.2-0.5c0-0.2,0-0.3,0.1-0.4c0.1-0.1,0.2-0.2,0.4-0.3c0.3-0.2,0.7-0.3,1.2-0.4
		c0.5-0.1,0.9-0.2,1.3-0.2C98.4,38.7,99.1,39,99.5,39.4z M98.1,44.1c0.3-0.3,0.4-0.7,0.4-1.2v-0.3h-0.3c-0.6,0-1.1,0-1.5,0.1
		c-0.3,0.1-0.6,0.2-0.7,0.3c-0.1,0.1-0.2,0.3-0.2,0.6c0,0.3,0.1,0.5,0.3,0.7s0.5,0.3,0.8,0.3C97.5,44.6,97.8,44.4,98.1,44.1z"/>
	<path class="st1" d="M107.5,39.2c0.5,0.3,0.8,0.7,1.1,1.3c0.3,0.5,0.4,1.2,0.4,1.9s-0.1,1.3-0.4,1.9c-0.3,0.5-0.6,0.9-1.1,1.2
		c-0.5,0.3-1,0.4-1.6,0.4c-0.5,0-0.9-0.1-1.3-0.3s-0.7-0.5-0.9-0.9v2.9c0,0.2-0.1,0.4-0.2,0.6c-0.2,0.1-0.4,0.2-0.6,0.2
		c-0.3,0-0.5-0.1-0.6-0.2c-0.2-0.1-0.2-0.3-0.2-0.6v-7.9c0-0.3,0.1-0.5,0.2-0.6s0.4-0.2,0.6-0.2s0.5,0.1,0.6,0.2
		c0.2,0.1,0.2,0.3,0.2,0.6v0.4c0.2-0.4,0.5-0.7,0.9-0.9c0.4-0.2,0.8-0.3,1.3-0.3C106.5,38.7,107.1,38.9,107.5,39.2z M106.8,43.9
		c0.3-0.4,0.5-0.9,0.5-1.6c0-0.7-0.2-1.3-0.5-1.7c-0.3-0.4-0.7-0.6-1.3-0.6c-0.6,0-1,0.2-1.3,0.6c-0.3,0.4-0.5,0.9-0.5,1.6
		c0,0.7,0.2,1.2,0.5,1.6c0.3,0.4,0.7,0.6,1.3,0.6C106,44.5,106.5,44.3,106.8,43.9z"/>
	<path class="st1" d="M115.9,39.2c0.5,0.3,0.8,0.7,1.1,1.3c0.3,0.5,0.4,1.2,0.4,1.9s-0.1,1.3-0.4,1.9c-0.3,0.5-0.6,0.9-1.1,1.2
		c-0.5,0.3-1,0.4-1.6,0.4c-0.5,0-0.9-0.1-1.3-0.3s-0.7-0.5-0.9-0.9v2.9c0,0.2-0.1,0.4-0.2,0.6c-0.2,0.1-0.4,0.2-0.6,0.2
		c-0.3,0-0.5-0.1-0.6-0.2c-0.2-0.1-0.2-0.3-0.2-0.6v-7.9c0-0.3,0.1-0.5,0.2-0.6s0.4-0.2,0.6-0.2s0.5,0.1,0.6,0.2
		c0.2,0.1,0.2,0.3,0.2,0.6v0.4c0.2-0.4,0.5-0.7,0.9-0.9c0.4-0.2,0.8-0.3,1.3-0.3C114.9,38.7,115.5,38.9,115.9,39.2z M115.2,43.9
		c0.3-0.4,0.5-0.9,0.5-1.6c0-0.7-0.2-1.3-0.5-1.7c-0.3-0.4-0.7-0.6-1.3-0.6c-0.6,0-1,0.2-1.3,0.6c-0.3,0.4-0.5,0.9-0.5,1.6
		c0,0.7,0.2,1.2,0.5,1.6c0.3,0.4,0.7,0.6,1.3,0.6C114.4,44.5,114.9,44.3,115.2,43.9z"/>
</g>
</svg>
